<svg width="50" height="50" viewBox="0 0 50 50" fill="none" xmlns="http://www.w3.org/2000/svg">
<circle cx="25" cy="25" r="24" stroke="#2E4D95" stroke-width="2"/>
<path d="M21.1367 15.8555V18.2109H20.7852C19.1914 18.2344 17.918 18.6719 16.9648 19.5234C16.0117 20.375 15.4453 21.582 15.2656 23.1445C16.1797 22.1836 17.3477 21.7031 18.7695 21.7031C20.2773 21.7031 21.4648 22.2344 22.332 23.2969C23.207 24.3594 23.6445 25.7305 23.6445 27.4102C23.6445 29.1445 23.1328 30.5508 22.1094 31.6289C21.0938 32.6992 19.7578 33.2344 18.1016 33.2344C16.3984 33.2344 15.0156 32.6055 13.9531 31.3477C12.8984 30.0898 12.3711 28.4414 12.3711 26.4023V25.4297C12.3711 22.4375 13.0977 20.0938 14.5508 18.3984C16.0117 16.7031 18.1094 15.8555 20.8438 15.8555H21.1367ZM18.0781 24C17.4531 24 16.8789 24.1758 16.3555 24.5273C15.8398 24.8789 15.4609 25.3477 15.2188 25.9336V26.8008C15.2188 28.0664 15.4844 29.0742 16.0156 29.8242C16.5469 30.5664 17.2344 30.9375 18.0781 30.9375C18.9219 30.9375 19.5898 30.6211 20.082 29.9883C20.5742 29.3555 20.8203 28.5234 20.8203 27.4922C20.8203 26.4609 20.5703 25.6211 20.0703 24.9727C19.5703 24.3242 18.9062 24 18.0781 24ZM32.6797 23.6133H37.1328V26.2148H32.6797V31.2891H29.9141V26.2148H25.4375V23.6133H29.9141V18.8672H32.6797V23.6133Z" fill="#2E4D95"/>
</svg>
